<svg fill="none" height="53" viewBox="0 0 54 53" width="54" xmlns="http://www.w3.org/2000/svg"><path d="m41.8132 0c.4532.463085 1.1002.430244 1.6585.597743 5.8329 1.757097 9.7807 6.837887 9.8201 12.913857.0591 8.5873.0591 17.1768 0 25.7685-.069 7.4094-5.8297 13.1536-13.2423 13.3178-2.7325.0624-5.4716 0-8.2107.0329-.9163.0164-1.2284-.2759-1.2251-1.2152.0285-5.4169.0197-10.8338-.0262-16.2507 0-1.0313.3711-1.3925 1.3432-1.2743.2187.0148.4382.0148.6569 0 4.3648-.0361 4.3648-.0361 4.9264-4.4338.427-3.327.427-3.327-2.9328-3.3598-4.0102-.0394-4.0102-.0394-3.9839-4.0725.0263-4.0332 1.0444-5.0119 5.1071-4.9068 2.7949.069 2.8212.069 2.7719-2.6832-.0295-1.5207.6339-3.4847-.2791-4.4404-.9853-1.04441-3.0084-.32843-4.5751-.39083-3.1003-.12481-6.0036.41053-8.3026 2.74563-1.7473 1.7768-2.8344 3.8262-2.9559 6.3847-.122 2.0208-.1406 4.0466-.0558 6.0694.0591 1.1035-.2299 1.5994-1.4353 1.5075-1.3597-.1019-2.7358.0164-4.102-.0559-.8901-.0493-1.2973.1675-1.2645 1.1495.0624 1.8031.0723 3.6127 0 5.4158-.0427 1.0608.4368 1.3137 1.3663 1.2907 1.3662-.0262 2.7358.0723 4.1021.0329.8703-.0263 1.294.1872 1.2874 1.1626-.0296 5.4191 0 10.8382 0 16.2507 0 .5682.023 1.1101-.8178 1.0937-3.1135-.069-6.2402.3284-9.3438-.1807-6.28286-1.028-11.07463-6.1744-11.245415-12.7036-.239753-9.0745-.210197-18.1654-.032845-27.2432.11495-5.75736 4.72609-10.80203 10.50976-12.151874.4204-.098528.8309-.239753 1.248-.36455602z" fill="#3b7ae1"/></svg>