<svg fill="none" height="53" viewBox="0 0 53 53" width="53" xmlns="http://www.w3.org/2000/svg"><g fill="#3b7ae1"><path d="m42.6954-.00017911c.1197.10536711.2548.19176211.4007.25617411 6.4898 1.671705 9.5606 5.537315 9.5836 12.240505.035 9.2464.035 18.4917 0 27.7359-.0329 7.4093-4.2696 12.0796-11.5936 12.3456-9.8923.3613-19.801.312-29.6965 0-5.85593-.1839-9.65913-3.501-11.058241-9.196-.065686-.2594-.049265-.5485-.32842931-.7028v-32.5145c.40396731-.37113.30872531-.90647.43024331-1.36627 1.129797-4.3057 3.809777-7.08093 8.092487-8.33224.44338-.128088 1.005-.000001 1.31372-.4827916zm-16.3328 6.89700911c-2.8442 0-5.6916-.1051-8.5391.01971-6.3945.27588-10.45062 4.08896-10.85787 10.45056-.37934 6.0054-.37934 12.0287 0 18.0341.38426 6.0726 4.18747 9.8529 10.29627 10.2864 6.2174.4729 12.4623.4598 18.6777-.0394 5.4651-.4598 9.219-4.1678 9.7084-9.6066.5348-6.2136.5557-12.4607.0624-18.6777-.4926-6.5489-4.4371-10.18134-10.9991-10.45722-2.7686-.10838-5.5636-.01313-8.3487-.01313z"/><path d="m10.4505 26.2546c0-2.7884-.1084-5.5833.0263-8.3585.2189-4.6659 2.646-7.1444 7.2812-7.4356 5.7848-.3613 11.5867-.3547 17.3706.0197 4.2368.2758 6.7394 2.5256 7.0711 6.7656.4615 6.0529.4615 12.1322 0 18.1851-.3087 4.0824-2.519 6.3321-6.5686 6.6868-6.1547.5452-12.3456.5452-18.5004 0-4.2301-.381-6.4109-2.8934-6.6244-7.1729-.1445-2.8901-.0295-5.7902-.0295-8.6869zm5.869.0263c-.016 1.9862.5565 3.9327 1.6454 5.5939 1.0888 1.6612 2.6452 2.9628 4.4729 3.7406 1.8276.7778 3.8447.9969 5.7967.6298 1.9521-.3672 3.7517-1.3042 5.1719-2.6928 1.4202-1.3887 2.3973-3.1668 2.8082-5.1101s.2372-3.9647-.4994-5.8094c-.7365-1.8447-2.0028-3.4299-3.6392-4.5558-1.6363-1.1259-3.5694-1.742-5.5555-1.7706-1.3253-.0169-2.6409.2279-3.8714.7203-1.2305.4925-2.3517 1.223-3.2993 2.1496-.9477.9266-1.7032 2.0311-2.2232 3.2503-.52 1.2191-.7942 2.5289-.8071 3.8542zm20.4447-12.7398c-.5993.024-1.1671.2747-1.5885.7016-.4213.4268-.6648.9979-.6809 1.5974-.0042.3129.0551.6234.1741.9127.119.2894.2954.5517.5185.7711s.4883.3914.7796.5056.6027.1682.9154.1589c.3121-.0059.6197-.0753.9041-.2039s.5396-.3138.7501-.5443.3719-.5014.4743-.7962c.1024-.2949.1436-.6075.1213-.9188-.0379-.5988-.3052-1.1599-.7462-1.5667-.4411-.4068-1.0219-.6279-1.6218-.6174z"/></g></svg>