<svg fill="none" height="162" viewBox="0 0 222 162" width="222" xmlns="http://www.w3.org/2000/svg" xmlns:xlink="http://www.w3.org/1999/xlink"><clipPath id="a"><path d="m0 0h222v162h-222z"/></clipPath><g clip-path="url(#a)" fill="#fcc241"><path d="m181.385 153.326 10.865-1.493c.072-1.174.059-2.152.209-3.104.049-.668.308-1.302.74-1.813s1.014-.872 1.663-1.031c1.433-.352 2.398.372 3.427 1.383 1.504 1.487 2.866 3.345 5.465 3.163.866-.065 1.798.463 2.671.782.659.317 1.41.387 2.116.2.707-.188 1.324-.622 1.74-1.224 4.124-5.112 3.824-8.38-1.381-12.299-2.43-1.833-5.133-3.3-7.673-4.982-1.223-.782-2.386-1.654-3.479-2.609-2.182-1.957-2.794-4.454-2.084-7.317.263-1.041.409-2.109.436-3.183-.007-1.224.291-2.431.866-3.511.576-1.081 1.411-2.001 2.43-2.678 4.697-3.417 9.732-3.189 14.917-1.604 2.678.822 3.687 3.124 4.241 5.524.182.782-.449 2.002-1.081 2.674-.919.984-2.261.834-3.414.247-2.043-1.12-4.441-1.405-6.69-.795-1.266.417-2.507.905-3.719 1.461l2.006 1.376c2.534 1.695 5.133 3.306 7.589 5.106 2.651 2.011 4.482 4.917 5.153 8.178.228.854.567 1.674 1.009 2.439 2.209 3.82 3.022 8.291 2.3 12.645-.71 4.272-3.642 6.58-7.537 7.943-1.14.405-2.233.934-3.257 1.578-1.648 1.11-3.605 1.667-5.589 1.592-3.583-.229-6.931-1.122-9.771-3.489-.408-.28-.904-.398-1.394-.333-2.736.391-5.459.926-8.201 1.304-2.3.3-4.625.49-6.951.587-.693.063-1.387-.119-1.96-.515-.574-.395-.991-.979-1.18-1.65-.452-1.507-.672-3.075-.651-4.65.121-5.165.339-10.327.651-15.488.469-7.728-.202-15.397-1.068-23.06-.046-.372-.065-.75-.078-1.122-.052-2.139.983-3.482 2.742-3.587 2.495-.143 4.182 1.187 4.273 3.45.092 2.263.157 4.507.163 6.763.052 10.748 1.127 21.521-.521 32.229-.016.307-.016.613 0 .92"/><path d="m148.593 68.2278c-2.567 1.8521-3.7 5.3802-7.726 5.0345.45 5.9215.892 11.7387 1.342 17.608.104.6958.169 1.3969.195 2.0999-.001.366-.086.7268-.246 1.0554-.161.3287-.394.6167-.681.8426-.288.2258-.623.3835-.98.4614s-.727.074-1.083-.0116c-.533-.0782-1.075-.0782-1.609 0-2.11.2636-4.248-.1692-6.09-1.2326-.977-.5413-1.577-1.6891-1.062-2.6542.958-1.8065.254-3.5216-.046-5.165-1.589-8.6214-2.234-17.3211-2.664-26.0859-.104-2.1587-.267-4.3107-.528-6.4563-.338-2.7847 1.557-4.3694 4.228-3.4629.401.0884.817.0884 1.218 0 .743-.0848 1.479-.3 2.222-.3522 2.527-.1695 4.182 1.1543 4.429 3.6716.261 2.6608.358 5.3411.541 8.0149 0 .45.104.9.156 1.35h.365c3.96-3.939 7.923-7.8802 11.888-11.8235.615-.6435 1.294-1.2225 2.026-1.7282.574-.3787 1.257-.5572 1.942-.5077.686.0496 1.336.3243 1.849.7816.492.3546 1.082.5462 1.687.5478 1.427 0 2.645.2739 3.323 1.6304.313.59.419 1.2682.3 1.9258-.118.6576-.453 1.2563-.952 1.7001-1.051 1.0034-2.161 1.9441-3.322 2.8173-2.091 1.6565-4.221 3.2608-6.182 4.7803 2.821 5.7976 5.706 11.2952 8.156 16.9558 1.257 2.9086 1.713 6.1693 2.605 9.254.3.7321.666 1.435 1.095 2.0999.205.3449.334.7296.379 1.1286.045.3989.005.8029-.118 1.1849-.124.382-.327.7333-.597 1.0305-.269.2971-.599.5333-.967.6928-1.342.5804-2.397.1174-3.498-1.6043-1.792.4695-3.062-.3848-3.974-1.8521-.987-1.4873-1.88-3.036-2.671-4.6368-1.882-4.0889-3.673-8.2235-5.426-12.3908-.742-1.7477-1.303-3.5607.085-5.328.204-.4663.336-.9611.391-1.4673"/><path d="m71.2769 65.9058c.3713-4.7607.7751-9.5214 1.1074-14.2886.1302-1.7543 1.2442-2.9412 2.3646-3.9976.482-.45 1.6285-.2609 2.4753-.2479.6514 0 1.3028.3718 1.9542.2935 4.1235-.5021 5.8627 1.4869 5.0224 5.5824-.7947 3.9129-1.7002 7.9171-1.9542 11.9147-.2606 4.4346.2084 8.9084.2866 13.3691 0 .9064-.3843 1.8194-.3843 2.7325.0441.868.1883 1.728.4299 2.5629.7035 2.9999 1.407 3.352 3.9606 1.5978 1.5887-1.1606 3.089-2.438 4.4882-3.8216.4374-.4292.7329-.9823.8468-1.5847.5993-3.5086 1.2377-7.0172 1.6481-10.5518.5203-4.8152.4108-9.6778-.3257-14.4646-.1185-.5731-.3757-1.1084-.7492-1.5587-.2935-.3255-.4912-.726-.5711-1.1572-.08-.4311-.0392-.876.118-1.2853s.4246-.767.7725-1.0335c.3479-.2664.7627-.4312 1.1984-.476 1.7132-.2804 3.4199-.5543 5.1331-.8021 3.2575-.4696 5.2115.9652 5.2115 4.2324 0 7.9367-.163 15.8798-1.805 23.686-1.079 5.2436-3.9097 9.9631-8.025 13.3821-2.1772 1.9074-4.9284 3.0321-7.8169 3.1955-4.7292.2804-11.1065-3.9585-12.8002-9.0714-1.166-3.515-1.6285-7.2975-2.1105-11.0017-.2997-2.3542-.0521-4.7868-.0521-7.1736h-.4104"/><path d="m63.0562 137.349h-8.084c0 .189-.0652.542-.0521.887.2692 4.735.5385 9.469.8077 14.204.0618.748.0749 1.5.0391 2.25-.017.737-.3027 1.442-.803 1.982-.5004.541-1.1809.88-1.9134.953-.7377.07-1.4745-.144-2.0603-.598s-.9765-1.115-1.0925-1.848c-.3713-2.165-.5732-4.369-.7687-6.561-.6514-7.173-1.4461-14.308-1.7978-21.475-.2541-5.217.039-10.434.241-15.651.1042-2.857 1.8435-4.826 4.3709-5.87 9.2696-3.873 25.4571 2.139 24.962 17.452-.0905 2.748-1.261 5.35-3.257 7.239-1.4852 1.493-2.6057 3.378-4.345 5.765.6515 1.487 1.9543 4.323 3.2571 7.173 1.2442 2.726 2.6708 5.387 3.7065 8.191.9576 2.609-1.0162 4.917-3.4003 4.22-.7856-.174-1.5189-.531-2.1395-1.044-.6206-.512-1.1108-1.165-1.4302-1.904-.7492-1.872-1.4787-3.75-2.2409-5.622-1.3028-3.26-2.6578-6.521-3.9801-9.743m-8.3315-6.299c4.0257-1.305 7.869-2.459 11.6276-3.829 1.85-.652 2.6708-2.191 2.4037-4.271-.2944-2.382-1.2362-4.638-2.7229-6.522-.1751-.288-.4343-.515-.7426-.652-3.3678-.73-6.7225-1.591-10.1294-2.041-1.837-.241-2.1887 1.5-1.3484 2.804.6714 1.067.9947 2.316.925 3.574-.0391 3.456 0 6.919 0 10.91"/><path d="m90.7152 138.574c-.1694 2.609-1.153 5.107-.5863 7.957.6514 3.169-.2996 6.345-1.9542 9.182-.3087.563-.7986 1.005-1.39 1.253-.5914.249-1.2495.29-1.8671.116-.6459-.155-1.2228-.519-1.6419-1.035-.419-.516-.6569-1.156-.6771-1.821-.0456-.698.1759-1.409.1173-2.1-.0912-1.135-.3323-2.263-.4625-3.398-.1903-.904-.2495-1.831-.1759-2.752 1.8044-9.919 3.687-19.825 5.5305-29.738.5024-3.157 1.8105-6.131 3.7977-8.634 1.6871-2.054 4.195-1.917 5.5174.417.1172.202.1889.509.3583.587 2.1496.985 2.6056 3.111 3.3286 5.009 4.52 11.594 8.31 23.46 11.348 35.529.43 1.676.814 3.26-.515 4.786-.228.255-.13.803-.169 1.213-.018.716-.29 1.401-.767 1.934-.478.532-1.13.875-1.839.969-1.479.176-2.606-.653-3.309-2.074-2.228-4.696-3.342-9.717-4.521-14.732-.059-.219-.167-.421-.316-.592s-.335-.305-.5438-.393c-3.029-.594-6.0711-1.096-9.2826-1.657m7.2567-7.134.3257-.417-3.7977-10.65-.3973.059c-.6514 3.3-1.3029 6.599-1.9543 10.141l5.8627.841"/><path d="m202.549 74.051c-1.414.4695-2.723.8478-3.974 1.363-.202.1103-.374.2672-.504.4578-.129.1905-.211.4092-.238.6378.195 5.628.449 11.256.697 16.8775 0 .8478.175 1.6891.149 2.5304.015.5249-.151 1.0387-.47 1.4555s-.772.711-1.282.8335c-1.042.3-1.811-.1761-2.645-.8608-2.312-1.9043-2.227-4.6107-2.605-7.1736-1.544-10.2909-1.7-20.6731-1.896-31.0553 0-1.1739-.052-2.3477-.078-3.5216-.08-.7473-.095-1.5-.046-2.2499.339-2.1586 1.857-3.7303 3.036-5.4194.28-.4108 1.83-.3326 2.514.0392.671.3784 1.446.5273 2.209.4239 2.142-.2463 4.3-.3334 6.455-.2609 5.895.4043 9.895 4.2063 11.133 10.3887 1.302 6.5606-.821 9.5018-6.358 13.043-.984.6521-1.375 1.0695-1.049 2.2694 1.544 5.6085 3.01 11.23 4.456 16.8646.508 2.0021.892 4.0302 1.303 6.0519.325 1.5847-.281 2.8108-1.551 3.202-1.27.3913-2.605-.3065-3.127-1.8977-1.836-5.8693-3.693-11.7387-5.361-17.608-.469-1.663-.293-3.502-.443-5.2563-.073-.3768-.182-.7458-.325-1.1021m-4.847-5.2563c3.186-.8609 6.169-1.6239 9.12-2.5108.656-.2171 1.21-.6672 1.557-1.2652 1.042-2.0673.156-5.6802-1.616-7.1084-3.087-2.4847-6.683-3.1694-10.8-3.0064.573 4.5651 1.133 9.0453 1.739 13.8908z"/><path d="m17.6141 115.163c-1.8631 0-3.7391.111-5.5956-.039-1.1503-.152-2.27319-.466-3.33525-.933-2.13662-.835-4.24066-1.761-6.34471-2.674-1.713207-.743-2.462338-1.832-2.33205612-3.293.07194082-.76.40801512-1.471.94963912-2.008.541627-.538 1.254487-.868 2.014297-.933 2.45988-.346 4.94213-.507 7.42608-.483 4.169.105 8.3315.431 12.494.75.9575.079 1.876.652 2.8336.724 1.609.144 3.2571.052 4.8465.104.5582-.057 1.121.047 1.622.3 1.8174 1.474 4.0583 1.227 6.1233 1.696 1.0052.296 1.9854.671 2.9313 1.122.4234.169.8338.391 1.3028.548.6379.176 1.2032.551 1.6142 1.07.411.52.6464 1.157.6722 1.819.0518.694-.1573 1.382-.5863 1.93s-1.047.915-1.7327 1.03c-2.5542.252-5.1238.309-7.6866.17-2.9053-.144-5.791-.554-8.6833-.835-.208 0-.4154.022-.6188.065.1498 9.6.2931 19.121.4625 28.643-.0342.417.059.836.2671 1.2 1.0618 1.304.9445 2.647.469 4.121-.1706.678-.2559 1.375-.2541 2.074-.0456.704.0326 1.415 0 2.113-.1824 2.048-1.4265 3.365-3.1137 3.372-1.6871.006-2.6056-1.22-3.1268-3.216-1.3028-5.086-1.2702-10.264-1.4396-15.442-.2475-7.409-.6514-14.811-.9575-22.219 0-.176-.0717-.352-.1564-.776"/><path d="m111.671 87.3686c-1.954-1.2326-2.163-3.2151-2.286-5.0477-.391-5.9997-.652-12.006-.893-18.0123-.156-3.3781-.26-6.7562-.378-10.1409-.014-.5134.002-1.0273.046-1.539.137-1.7282 1.374-2.6086 3.088-2.4521 1.383.0858 2.772.0509 4.149-.1044 1.629-.1434 3.257-.6065 4.873-.5934 2.716 0 3.876 2.1456 2.664 4.565-.164.3251-.245.6859-.235 1.05.608 10.8343 1.225 21.6665 1.85 32.4965v.4239c.189 4.4542-1.114 5.6215-5.471 4.9889-1.811-.2608-3.642-.3913-5.466-.5869-1.257-.1304-2.423-.4565-2.97-1.7739-.547-1.3173 0-2.276 1.023-3.2607"/><path d="m151.114 118.964c.307 4.037.606 8.087.932 12.391l5.771-.548c1.069-.147 2.146-.23 3.225-.247.764-.024 1.511.226 2.108.704.596.478 1.004 1.153 1.149 1.904.157.775.009 1.582-.413 2.25-.423.669-1.087 1.148-1.854 1.337-1.911.455-3.853.762-5.811.92-1.23.063-2.463.063-3.693 0 .358 3.162.808 6.143.99 9.13.078 1.304-.352 2.641-.606 3.952-.136.41-.327.801-.566 1.16 4.357.353 8.585.653 12.813 1.037.842.035 1.679.147 2.501.333.671.151 1.27.53 1.694 1.072.425.541.65 1.213.638 1.902.008.691-.231 1.362-.675 1.892-.443.53-1.061.883-1.742.997-1.06.191-2.134.292-3.211.3-3.361.104-6.729.137-10.09.248-1.218.039-2.424.287-3.642.345-2.534.131-4.273-1.148-4.429-3.665-.137-2.302.221-4.637.358-6.958.019-.276.019-.553 0-.828-.736-8.981-1.765-17.948-1.479-26.98.011-.517-.037-1.033-.143-1.539-.651-3.261.339-6.091 2.267-8.654.997-1.304 2.443-1.5 3.947-1.239 2.261.398 4.502.952 6.769 1.304 1.73.202 3.469.309 5.211.32 2.182.065 3.589 1.128 3.693 2.876.105 1.748-1.179 3.071-3.335 3.261-4.006.384-8.012.652-12.377 1.043"/><path d="m131.389 143.329c.651-3.593 1.303-7.173 1.896-10.773 1.142-6.804 2.271-13.608 3.387-20.412.215-1.305.788-2.426 2.137-2.896 2.195-.763 4.221 1.011 3.856 3.515-.88 6.026-1.954 12.032-2.801 18.065-1.016 7.052-1.965 14.114-2.847 21.188-.293 2.289-.827 4.259-3.433 4.885-.273.065-.495.397-.729.652-1.688 1.643-3.909 1.552-5.381-.313-.534-.718-.972-1.503-1.303-2.335-2.873-6.782-4.24-13.989-5.862-21.123-.958-4.206-1.883-8.426-2.938-12.606-.326-1.304-1.121-2.433-1.583-3.685-.505-1.253-.889-2.553-1.147-3.88-.119-.637-.01-1.295.308-1.86.318-.564.825-.998 1.432-1.225.588-.322 1.272-.425 1.929-.29s1.246.499 1.66 1.027c.864 1.156 1.525 2.45 1.954 3.828 2.058 6.724 3.948 13.493 6 20.217.827 2.726 1.915 5.374 2.885 8.054h.547"/><path d="m172.317 55.315c.235 3.9716.456 7.8257.704 11.9669 2.143-.1631 4.175-.3196 6.207-.4565 1.213-.1204 2.43-.1727 3.648-.1565 2.137.1043 3.069 1.1021 3.257 3.2607.033.2794.085.5562.157.8282.174.4928.191 1.0279.048 1.5306-.144.5027-.441.948-.849 1.2737-.873.6912-1.779.5478-2.782.1826-.668-.1601-1.364-.1601-2.032 0-.789.1237-1.564.3246-2.313.5999-1.7.6131-3.257.7044-4.319-1.076-.052-.0783-.254-.0587-.651-.15.011 4.6839.316 9.3624.912 14.0081h7.608c.893 0 1.785-.0782 2.678-.0847 1.302 0 2.494.1956 3.048 1.5455.554 1.35 0 2.2826-1.016 3.0651.866 2.2369.547 3.9977-2.742 4.6172-1.196.2438-2.416.3488-3.635.3131-1.994-.0913-3.863-.1044-5.707.9717-1.563.9065-3.322-.1631-3.719-2.0152-.248-1.1477-.358-2.3216-.541-3.4824-.018-.3755-.104-.7445-.254-1.0891-2.566-4.1346-2.071-8.8757-2.547-13.3886-.599-5.7911-.886-11.6148-1.231-17.4319-.104-1.7869-.521-3.6716.86-5.2628.156-.1826.058-.6522 0-.9391-.404-2.276 1.381-4.9694 3.7-5.0542 4.56-.1565 9.119-.15 13.679 0 2.091.0587 3.062 1.3043 2.945 3.0064-.144 2.1065-1.192 3.1434-3.362 3.1695-3.003.0391-6.006 0-9.015 0-.827 0-1.648.163-2.677.2739"/><path d="m40.0943 91.262c-.3196 1.1706-.7045 2.3224-1.153 3.4498-.5882 1.1237-1.2407 2.2124-1.9542 3.2607-.2343.4191-.5115.8125-.8273 1.1739-.4287.4616-.9121.8686-1.4396 1.2126-.836.522-1.7066.986-2.6057 1.389-1.0553.47-2.1366.913-3.3482.653-.1012-.02-.205-.02-.3062 0-.9292.162-1.8828.118-2.7927-.132-.9099-.249-1.7535-.696-2.4707-1.31-1.4005-1.0757-2.7359-2.256-4.0322-3.4625-1.5544-1.4559-2.9517-3.0712-4.169-4.8194-1.4272-1.9537-2.6414-4.0547-3.6218-6.2671-.3909-.9065-1.0423-1.6956-1.5113-2.6086-.32341-.6497-.60198-1.3208-.83379-2.0086-.46901-1.3043-.96409-2.6086-1.34842-3.9129-.13658-.7374-.2301-1.4821-.2801-2.2304-.18239-1.0825-.44296-2.152-.61232-3.2607-.20194-1.3043-.35176-2.6086-.52764-3.9585-.31919-2.3739-.6514-4.7412-.96407-7.115-.12377-.9586-.14333-1.9564-.26058-2.8955-.14983-1.2195-.35829-2.4325-.54068-3.6455-.1824-1.213-.42343-2.6086-.57977-3.9129-.2345-2.0782-.45164-4.1629-.6514-6.2541-.0912-1.0565-.07816-2.1195-.14982-3.176-.05862-.926-.15632-1.8521-.23449-2.7781-.11726-1.35-.23452-2.6999-.33875-4.0564-.06514-.8347-.13027-1.676-.14981-2.5107 0-1.3435 0-2.6934 0-4.0368 0-1.3435-.0391-2.6086-.05212-3.9129 0-1.9565-.04558-3.8672-.05861-5.7976 0-1.3043-.0456-2.6086 0-3.9129.07166-1.5978.21496-3.1955.36479-4.79328.08097-.42622.18977-.84667.3257-1.25864.17588-.73693.27358-1.49342.5146-2.21078.19231-.59179.47821-1.14885.84682-1.64993.93803-1.24561 1.95426-2.43252 2.91834-3.652032.14913-.223876.36767-.392417.62195-.47963s.53015-.088253.78508-.00296c.36689.077438.73939.125416 1.11392.143473.36577.033313.70907.191422.97227.447855.2633.256434.4306.595624.4738.960784.0634.6153.0938 1.23355.0912 1.8521.1043.93909.241 1.87818.43 2.79771.2184.7508.3731 1.51871.4625 2.29556.1268.88968.3451 1.76387.6514 2.60857.4755 1.8195.9315 3.639 1.4526 5.452.2931 1.0304.7036 2.0347 1.0423 3.0651.1303.3847.2084.7956.3126 1.1934.4951 1.8521 1.5048 3.4564 2.4168 5.1063.912 1.65 1.8435 3.3912 2.9313 4.9694 1.5373 2.2173 2.6057 4.6824 3.8629 7.0301.7097 1.4499 1.3191 2.9468 1.8239 4.4803.7947 2.0934 1.5894 4.1998 2.2604 6.3454.938 2.9673 1.7392 5.9802 2.6056 8.967.3648 1.2261.8534 2.413 1.1856 3.639.2801 1.0239.4364 2.0804.6514 3.1238.2747 1.7262.7649 3.4111 1.4591 5.015.7233 1.5849 1.0562 3.3203.9707 5.0607-.0717 1.363.2084 2.7455.1237 4.102-.0977 1.4804.7947 2.6934.8599 4.0889.0781 1.7282 1.0292 3.176 1.394 4.8129.2038.5709.4612 1.1211.7686 1.6434.1629.3717.2736.763.417 1.1478.0911.2413.2019.4695.3061.7108l.4104-.1956"/><path d="m57.8842 94.7179c-.925 0-1.7783 0-2.6056 0-.3876-.0053-.7728-.0601-1.1465-.163-.5798-.15-1.14-.3587-1.7067-.5478-.6381-.2555-1.2907-.4732-1.9542-.6522-.8331-.1025-1.615-.4575-2.2409-1.0173-.5224-.4564-1.08-.8707-1.6676-1.2391-.3166-.2488-.5587-.5799-.7-.9571-.1413-.3773-.1763-.7861-.1012-1.182.0651-1.1086.0651-2.2173.1238-3.3259.0245-.2321.1025-.4554.2279-.6522.4039-.6521.0456-1.2651-.254-1.7999-.2439-.496-.392-1.0337-.4365-1.5847-.1729-.8517-.4036-1.6905-.6904-2.5108-.125-.2603-.2127-.5369-.2606-.8217-.0904-1.0365-.4229-2.0373-.9706-2.9216-.3687-.6498-.8319-1.241-1.3745-1.7543-.2974-.3182-.6657-.5618-1.0748-.7108-.4706-.1712-.8887-.462-1.213-.8439-.3244-.3819-.5439-.8417-.637-1.3343-.6514-2.1064-.7361-4.2976-1.0618-6.4563-.2258-1.678-.6097-3.331-1.1465-4.9367-.6514-1.826-1.1986-3.6846-1.8109-5.5237-.2085-.6521-.5211-1.2326-.7296-1.8586-.4039-1.2-.7491-2.4195-1.166-3.6194-.3518-1.0369-.7556-2.0543-1.1465-3.0782-.5081-1.3043-.9445-2.6673-1.5438-3.9129-.5472-1.1543-1.3028-2.2107-1.9021-3.3324-.2145-.4455-.4037-.9027-.5667-1.3695-.1659-.636-.504-1.2138-.9772-1.6695-.3908-.3131-.5276-.9457-.8077-1.4152-.5797-.9717-1.1921-1.9173-1.7784-2.889-.469-.7761-.9575-1.5391-1.3549-2.3477-.3973-.8087-.7882-1.8326-1.1464-2.7652-.4104-1.0695-.8143-2.1455-1.1661-3.2607-.3974-1.2391-.7035-2.5042-1.1009-3.7433-.5146-1.6239-1.1269-3.2151-1.6089-4.852-.4821-1.6369-.8208-3.2607-1.2377-4.83893-.2345-.88692-.5211-1.76732-.7491-2.65424-.3847-1.31504-.7-2.64945-.9446-3.99767-.2149-1.545585.8143-2.36077 2.4298-2.1651256 1.705.3041876 3.3392.9210326 4.8204 1.8194956 1.4005.74997 2.8206 1.46733 4.143 2.32816.717.54647 1.3723 1.1697 1.9542 1.85862.8077.82823 1.635 1.6369 2.3906 2.51077 1.1074 1.3043 2.1627 2.60862 3.2571 3.91292.938 1.1477 1.837 2.3216 2.8011 3.4498 1.1139 1.3043 2.3255 2.5434 3.3938 3.9129.825 1.0791 1.5904 2.2024 2.2929 3.3651 1.0618 1.6499 2.0715 3.339 3.1268 4.9954.5342.8413 1.1726 1.6174 1.6872 2.4717.71 1.1804 1.3419 2.4195 2.0389 3.6129.228.3913.5732.7108.8272 1.0891.9381 1.376 1.811 2.7977 2.8076 4.1281.9908 1.315 1.8939 2.694 2.7034 4.1281.5993 1.076 1.2377 2.1325 1.8435 3.2085.1206.2438.2082.5026.2605.7696.3518 1.4934 1.2637 2.7259 1.8826 4.0954.241.5478.3582 1.1543.5927 1.7087.3844.9065.912 1.7608 1.1987 2.6868.8468 2.7129 1.6089 5.452 2.3971 8.1845.4821 1.6695.9641 3.339 1.4071 5.015.1303.4891.1042 1.0108.2019 1.513.0521.2804.2736.5412.2931.8217.0521.6913.0326 1.3825.0391 2.0738-.0131.1432-.0131.2872 0 .4304.1498.7696.3453 1.5261.4691 2.3021.0586.3326-.0587.6913 0 1.0304.1042 1.3043.2931 2.6412.3257 3.965-.0192.7488-.1353 1.4919-.3453 2.2108-.3258 1.5975-.739 3.1759-1.2377 4.7281-.4625 1.3043-.8207 2.7129-2.0063 3.6129-.5875.4559-1.2033.8741-1.8435 1.2521-.7283.432-1.4784.826-2.2473 1.1804-.3816.1482-.7764.2596-1.1791.3326"/></g></svg>