<svg fill="none" height="53" viewBox="0 0 52 53" width="52" xmlns="http://www.w3.org/2000/svg"><g fill="#3b7ae1"><path d="m51.9971 8.79558v34.83972c-.2496.9328-.1675 1.8918-.1971 2.8377-.0715 1.4964-.6972 2.9127-1.7553 3.9732s-2.4729 1.6895-3.9692 1.7644c-.8736.0263-1.7603-.0689-2.6274.1938h-34.83646c-.93603-.2857-1.90161-.1577-2.85405-.2102-2.2366-.1182-4.926439-2.5026-5.225309-4.6768-.072254-.5255.019705-1.074-.226617-1.5765v-39.68407c1.234896-4.14149 2.653706-5.271287 7.061226-5.639127.18806-.029726.37361-.073645.55504-.131375h35.75607c.6963.289018 1.4385.193777 2.1512.15765 3.1267-.151078 6.2402 3.225172 5.9938 6.112062.0012.68351.0594 1.36572.1741 2.03954zm-46.08844 37.88432c.42696-.0854.61416-.1084.78823-.1642 3.10694-.9689 6.21721-1.9214 9.31101-2.9329.2648-.1007.5479-.1446.8308-.1287.2829.0158.5593.091.8113.2206 3.6457 1.7798 7.7437 2.4174 11.7578 1.8294 9.705-1.3433 18.6153-10.2536 16.7236-22.7207-1.5568-10.2503-10.7002-17.9848-22.5664-16.44446-13.2849 1.72425-20.88479 16.44116-14.83185 28.42556.25772.4557.40743.9645.4376 1.4872.03018.5227-.05998 1.0454-.26353 1.5278-1.06739 2.8704-1.98043 5.7934-2.99856 8.9004z"/><path d="m11.0516 41.7111c.5813-1.7768 1.0214-3.3171 1.5929-4.8049.3284-.8802.2134-1.5371-.2759-2.3319-3.72768-6.0956-3.31387-13.5542 1.248-19.0127 4.5619-5.4585 10.4539-7.24189 17.2852-5.5505 6.2796 1.5535 11.3046 7.2255 12.0304 13.597.7619 6.6999-1.5633 12.2405-7.2255 16.0043-5.6621 3.7638-11.5804 3.8525-17.5249.5813-.267-.1711-.5704-.2772-.8859-.3097-.3154-.0325-.6341.0095-.9303.1225-1.6717.5748-3.3533 1.0806-5.314 1.7046zm9.2387-24.8391c-1.0411 0-1.248.0854-1.8885.7127-1.8359 1.8064-2.23 4.4502-.7849 7.1138 2.9131 5.3632 7.1236 9.196 13.2817 10.4539 2.0855.4335 3.7966-.3088 5.084-1.9312 1.1134-1.3991.7488-2.7884-.8112-3.5733-.2726-.1379-.5517-.2693-.8276-.4007-2.5782-1.2217-2.5979-1.2382-4.4601.8276-.5025.5617-.9459.6076-1.5929.3285-2.4154-1.039-4.4714-2.7661-5.9117-4.9659-.4959-.7291-.5255-1.3137.1347-1.9081.959-.8868 1.1626-1.8852.4992-3.0807-.4046-.7804-.743-1.5934-1.0116-2.4304-.3284-.9032-.9295-1.2677-1.7111-1.1462z"/></g></svg>